<svg xmlns="http://www.w3.org/2000/svg" fill="none" viewBox="0 0 18 18" class="h-4.5 w-4.5 translate-y-0 opacity-80 transition-opacity duration-300 hover:opacity-100"><g clip-path="url(#github-footer_inline_svg__a)"><path fill="url(#github-footer_inline_svg__b)" d="M8.999.209a9 9 0 0 0-2.79 17.558h.217a.75.75 0 0 0 .795-.796v-.975a.38.38 0 0 0-.15-.247.38.38 0 0 0-.315-.075c-2.01.435-2.437-.825-2.467-.907a3.5 3.5 0 0 0-1.29-1.643 1 1 0 0 0-.113-.083.47.47 0 0 1 .285-.052 1.1 1.1 0 0 1 .863.66 2.25 2.25 0 0 0 3 .87.38.38 0 0 0 .217-.27 1.5 1.5 0 0 1 .42-.923.375.375 0 0 0-.202-.652c-1.778-.202-3.593-.825-3.593-3.893a3 3 0 0 1 .788-2.085.38.38 0 0 0 .067-.397 2.64 2.64 0 0 1 .008-1.8c.693.123 1.343.42 1.89.862a.37.37 0 0 0 .315.053 8 8 0 0 1 2.055-.278c.697.001 1.39.094 2.062.278a.37.37 0 0 0 .308-.053 4.2 4.2 0 0 1 1.89-.862 2.68 2.68 0 0 1 0 1.785.37.37 0 0 0 .067.397 3 3 0 0 1 .788 2.063c0 3.068-1.823 3.683-3.608 3.885a.374.374 0 0 0-.202.66 1.65 1.65 0 0 1 .457 1.305v2.385a.8.8 0 0 0 .27.623.9.9 0 0 0 .795.142A9 9 0 0 0 9 .209"></path></g><defs><linearGradient id="github-footer_inline_svg__b" x1="8.984" x2="8.984" y1="0.209" y2="17.781" gradientUnits="userSpaceOnUse"><stop stop-color="#C9CBCF"></stop><stop offset="1" stop-color="#C9CBCF" stop-opacity="0.8"></stop></linearGradient><clipPath id="github-footer_inline_svg__a"><path fill="#fff" d="M0 0h18v18H0z"></path></clipPath></defs></svg>